<svg width="311" height="304" viewBox="0 0 311 304" fill="none" xmlns="http://www.w3.org/2000/svg">
<circle cx="152" cy="152" r="152" fill="#9878BA"/>
<path d="M62.368 172.328H83.872V185H45.952V117.608H62.368V172.328ZM108.118 117.608V185H91.702V117.608H108.118ZM136.431 172.328H157.935V185H120.015V117.608H136.431V172.328ZM207.717 173.096H182.565L178.533 185H161.349L185.733 117.608H204.741L229.125 185H211.749L207.717 173.096ZM203.493 160.424L195.141 135.752L186.885 160.424H203.493ZM233.762 151.208C233.762 144.552 235.202 138.632 238.082 133.448C240.962 128.2 244.962 124.136 250.082 121.256C255.266 118.312 261.122 116.84 267.65 116.84C275.65 116.84 282.498 118.952 288.194 123.176C293.89 127.4 297.698 133.16 299.618 140.456H281.57C280.226 137.64 278.306 135.496 275.81 134.024C273.378 132.552 270.594 131.816 267.458 131.816C262.402 131.816 258.306 133.576 255.17 137.096C252.034 140.616 250.466 145.32 250.466 151.208C250.466 157.096 252.034 161.8 255.17 165.32C258.306 168.84 262.402 170.6 267.458 170.6C270.594 170.6 273.378 169.864 275.81 168.392C278.306 166.92 280.226 164.776 281.57 161.96H299.618C297.698 169.256 293.89 175.016 288.194 179.24C282.498 183.4 275.65 185.48 267.65 185.48C261.122 185.48 255.266 184.04 250.082 181.16C244.962 178.216 240.962 174.152 238.082 168.968C235.202 163.784 233.762 157.864 233.762 151.208Z" fill="#FFFBEF"/>
</svg>
